:SAMPLES-PER-SECOND 30
:FULLY-SPECIFIED
:DEGREES
743
root  0.71985 39.7852 10.9705 175.28 -2.23624 -176.155
RightUpLeg  1.81502 -4.00103 5.91034
RightLeg  10.2226 1.9058 0.986731
RightFoot  -7.08441 0.0839576 -3.53066
RightToes  -1.33073e-015 0 -3.6325e-017
Spine  -3.66677 0.223523 7.86696
Spine1  16.4177 0.139448 0.999614
HEad  -6.24673 -0.877268 -0.826633
LeftShoulder1  6.49308 -13.4576 -32.2735
LeftArm  3.15095 5.58064 -33.2795
LeftForeArm  30.2889 -48.5752 -10.4412
LeftHand  -0.246645 0.021 5.37786
RightShoulder  6.57088 13.674 32.3049
RightArm  17.4833 -7.55047 34.6505
RightForeArm  2.17409 28.0877 5.9548
RightHand  -0.24729 -0.0210522 -5.37781
LeftUpLeg  -2.33281 5.31715 12.2858
LeftLeg  18.6025 -9.93336 -3.39343
LeftFoot  -10.3982 0.107466 -5.48623
LeftToes  5.09284e-011 3.02203e-011 3.83118e-011
744
root  0.591566 39.8118 10.8943 175.339 -2.41864 -176.213
RightUpLeg  1.99561 -4.10141 5.6315
RightLeg  9.99767 1.88946 0.954099
RightFoot  -7.05179 0.0809212 -3.43553
RightToes  -1.33073e-015 0 -3.6325e-017
Spine  -4.10614 0.215068 7.78595
Spine1  16.7374 0.12967 0.882436
HEad  -6.25993 -1.05135 -0.794754
LeftShoulder1  6.46498 -13.3854 -32.2711
LeftArm  2.00189 5.57042 -32.649
LeftForeArm  29.8611 -48.2605 -10.3454
LeftHand  -0.246645 0.021 5.37786
RightShoulder  6.56071 13.6382 32.3261
RightArm  17.932 -8.28024 34.4093
RightForeArm  1.4808 25.2982 5.32068
RightHand  -0.24729 -0.0210522 -5.37781
LeftUpLeg  -2.17302 5.30459 12.0075
LeftLeg  18.332 -10.0524 -3.38387
LeftFoot  -10.3125 0.109569 -5.32094
LeftToes  5.09284e-011 3.02203e-011 3.83118e-011
745
root  0.442332 39.8413 10.8186 175.438 -2.52827 -176.282
RightUpLeg  2.12327 -4.13699 5.35499
RightLeg  9.78681 1.90823 0.850618
RightFoot  -7.00472 0.0763639 -3.26657
RightToes  -1.33073e-015 0 -3.6325e-017
Spine  -4.55436 0.256218 7.73579
Spine1  17.0311 0.170997 0.755885
HEad  -6.16337 -1.15646 -0.765351
LeftShoulder1  6.40475 -13.2562 -32.2078
LeftArm  1.03682 5.30054 -32.2814
LeftForeArm  29.1154 -47.7287 -10.1881
LeftHand  -0.246645 0.021 5.37786
RightShoulder  6.55931 13.6194 32.3603
RightArm  17.8942 -8.94677 34.2238
RightForeArm  1.09494 22.4256 5.12353
RightHand  -0.24729 -0.0210522 -5.37781
LeftUpLeg  -2.04748 5.31701 11.6719
LeftLeg  18.0874 -10.0189 -3.32324
LeftFoot  -10.2157 0.110732 -5.04053
LeftToes  5.09284e-011 3.02203e-011 3.83118e-011
746
root  0.303463 39.8752 10.7618 175.469 -2.41876 -176.344
RightUpLeg  2.30503 -4.07809 5.14408
RightLeg  9.53964 2.01925 0.690556
RightFoot  -6.88057 0.07443 -3.10445
RightToes  -1.33073e-015 0 -3.6325e-017
Spine  -4.58957 0.341897 7.50922
Spine1  16.9728 0.242182 0.766417
HEad  -5.98642 -1.0535 -0.783085
LeftShoulder1  6.38568 -13.205 -32.2109
LeftArm  0.157419 5.14932 -31.9352
LeftForeArm  28.7723 -47.0942 -9.96399
LeftHand  -0.246645 0.021 5.37786
RightShoulder  6.56839 13.6162 32.4208
RightArm  14.6537 -9.48761 33.9818
RightForeArm  4.1483 19.2861 6.36693
RightHand  -0.24729 -0.0210522 -5.37781
LeftUpLeg  -1.76672 5.7449 11.4483
LeftLeg  17.7577 -10.2282 -3.3321
LeftFoot  -10.0613 0.11352 -4.76362
LeftToes  5.09284e-011 3.02203e-011 3.83118e-011
747
root  0.158769 39.9159 10.7161 175.451 -2.28827 -176.481
RightUpLeg  2.55143 -4.1209 4.79792
RightLeg  9.25324 2.22373 0.588325
RightFoot  -6.71998 0.0746875 -2.97608
RightToes  -1.33073e-015 0 -3.6325e-017
Spine  -4.3672 0.340443 7.12364
Spine1  16.7158 0.24707 0.771252
HEad  -5.85341 -0.838558 -0.804305
LeftShoulder1  6.4208 -13.2451 -32.3291
LeftArm  -0.932095 5.35543 -31.4012
LeftForeArm  29.0494 -46.7974 -9.82965
LeftHand  -0.246645 0.021 5.37786
RightShoulder  6.5836 13.6199 32.5038
RightArm  9.40702 -9.97728 33.8606
RightForeArm  9.40211 16.203 7.89014
RightHand  -0.24729 -0.0210522 -5.37781
LeftUpLeg  -1.33874 6.27114 11.1585
LeftLeg  17.2265 -10.5785 -3.34661
LeftFoot  -9.81939 0.118918 -4.52223
LeftToes  5.09284e-011 3.02203e-011 3.83118e-011
748
root  -0.00909506 39.9639 10.6631 175.525 -2.19374 -176.731
RightUpLeg  2.72683 -4.25948 4.27164
RightLeg  8.94958 2.51654 0.513411
RightFoot  -6.5676 0.0720788 -2.79426
RightToes  -1.33073e-015 0 -3.6325e-017
Spine  -4.31758 0.25879 6.76017
Spine1  16.5542 0.231206 0.550517
HEad  -5.84415 -0.708083 -0.69353
LeftShoulder1  6.46191 -13.2702 -32.5171
LeftArm  -2.38303 5.8074 -30.6819
LeftForeArm  29.2564 -46.9193 -9.86159
LeftHand  -0.246645 0.021 5.37786
RightShoulder  6.59963 13.6199 32.5952
RightArm  4.83353 -10.6179 34.0202
RightForeArm  13.7068 13.9581 8.67614
RightHand  -0.24729 -0.0210522 -5.37781
LeftUpLeg  -0.919853 6.66506 10.6599
LeftLeg  16.5089 -10.7755 -3.26398
LeftFoot  -9.5021 0.125038 -4.24172
LeftToes  5.09284e-011 3.02203e-011 3.83118e-011
749
root  -0.180662 40.0168 10.5985 175.768 -1.91063 -177.013
RightUpLeg  2.7455 -4.28717 3.77763
RightLeg  8.5991 2.92977 0.356145
RightFoot  -6.38828 0.0654926 -2.5135
RightToes  -1.33073e-015 0 -3.6325e-017
Spine  -4.58667 0.265405 6.50663
Spine1  16.5561 0.34504 0.128164
HEad  -5.90504 -0.735107 -0.450421
LeftShoulder1  6.47494 -13.2221 -32.7061
LeftArm  -4.08393 6.26247 -29.8945
LeftForeArm  28.9604 -47.1531 -9.97318
LeftHand  -0.246645 0.021 5.37786
RightShoulder  6.60389 13.6063 32.6512
RightArm  2.32379 -11.5208 34.4485
RightForeArm  15.2685 13.0493 8.79032
RightHand  -0.24729 -0.0210522 -5.37781
LeftUpLeg  -0.576819 7.27517 10.1308
LeftLeg  15.7089 -10.9457 -3.15112
LeftFoot  -9.14818 0.130266 -3.93919
LeftToes  5.09284e-011 3.02203e-011 3.83118e-011
750
root  -0.339084 40.0713 10.5322 176.116 -1.41339 -177.272
RightUpLeg  2.66591 -4.21885 3.36992
RightLeg  8.17701 3.46879 0.168501
RightFoot  -6.14988 0.0589564 -2.21821
RightToes  -1.33073e-015 0 -3.6325e-017
Spine  -4.98659 0.392874 6.2986
Spine1  16.5966 0.585041 -0.337199
HEad  -5.93129 -0.823984 -0.280078
LeftShoulder1  6.45838 -13.1319 -32.8169
LeftArm  -5.80767 6.65847 -29.1232
LeftForeArm  28.6106 -47.3717 -10.084
LeftHand  -0.246645 0.021 5.37786
RightShoulder  6.58809 13.5717 32.6373
RightArm  1.6698 -12.5945 35.0673
RightForeArm  14.5646 13.261 8.59295
RightHand  -0.24729 -0.0210522 -5.37781
LeftUpLeg  -0.263875 8.24155 9.71198
LeftLeg  14.8607 -11.2847 -3.10446
LeftFoot  -8.77682 0.135337 -3.69371
LeftToes  5.09284e-011 3.02203e-011 3.83118e-011
751
root  -0.495581 40.1252 10.4764 176.444 -0.969742 -177.552
RightUpLeg  2.59514 -4.2621 2.87757
RightLeg  7.73943 4.04918 0.0741547
RightFoot  -5.8923 0.0548679 -1.99076
RightToes  -1.33073e-015 0 -3.6325e-017
Spine  -5.25038 0.485417 6.01599
Spine1  16.5206 0.784663 -0.74901
HEad  -5.90056 -0.797662 -0.334666
LeftShoulder1  6.40839 -13.0237 -32.7695
LeftArm  -7.30805 7.07626 -28.4051
LeftForeArm  28.5899 -47.7135 -10.2207
LeftHand  -0.246645 0.021 5.37786
RightShoulder  6.56993 13.5431 32.5956
RightArm  2.15094 -13.644 35.7811
RightForeArm  13.1619 14.079 8.25333
RightHand  -0.24729 -0.0210522 -5.37781
LeftUpLeg  0.0823099 9.02609 9.26582
LeftLeg  13.9028 -11.5104 -3.05989
LeftFoot  -8.37442 0.141039 -3.50604
LeftToes  5.09284e-011 3.02203e-011 3.83118e-011
752
root  -0.658456 40.1762 10.4376 176.662 -0.69397 -177.878
RightUpLeg  2.58435 -4.41234 2.27695
RightLeg  7.37959 4.55334 0.0208762
RightFoot  -5.68179 0.049613 -1.78181
RightToes  -1.33073e-015 0 -3.6325e-017
Spine  -5.2567 0.475097 5.57729
Spine1  16.2846 0.863962 -1.04832
HEad  -5.88034 -0.552071 -0.525087
LeftShoulder1  6.3221 -12.8907 -32.5584
LeftArm  -8.4066 7.48108 -27.7758
LeftForeArm  28.5901 -48.1532 -10.397
LeftHand  -0.246645 0.021 5.37786
RightShoulder  6.57618 13.5564 32.6022
RightArm  3.34146 -14.5002 36.4539
RightForeArm  12.0322 15.1296 7.83616
RightHand  -0.24729 -0.0210522 -5.37781
LeftUpLeg  0.500256 9.21736 8.68598
LeftLeg  12.8466 -11.2972 -2.92972
LeftFoot  -7.94724 0.146399 -3.33166
LeftToes  5.09284e-011 3.02203e-011 3.83118e-011
753
root  -0.817471 40.2201 10.413 176.764 -0.432098 -178.199
RightUpLeg  2.6128 -4.47511 1.73651
RightLeg  7.13786 4.95087 -0.129468
RightFoot  -5.5446 0.0385177 -1.50264
RightToes  -1.33073e-015 0 -3.6325e-017
Spine  -5.12439 0.465056 5.009
Spine1  16.0372 0.903883 -1.20053
HEad  -5.91954 -0.174503 -0.688842
LeftShoulder1  6.22291 -12.753 -32.2756
LeftArm  -9.12517 7.70703 -27.2758
LeftForeArm  28.3412 -48.4578 -10.5398
LeftHand  -0.246645 0.021 5.37786
RightShoulder  6.60358 13.6003 32.663
RightArm  4.93414 -15.0421 37.0065
RightForeArm  11.2418 16.1994 7.39444
RightHand  -0.24729 -0.0210522 -5.37781
LeftUpLeg  0.973531 9.10132 8.10245
LeftLeg  11.8495 -10.8216 -2.79345
LeftFoot  -7.54702 0.149549 -3.14737
LeftToes  5.09284e-011 3.02203e-011 3.83118e-011
754
root  -0.969187 40.2585 10.3952 176.808 -0.0984955 -178.455
RightUpLeg  2.67544 -4.42905 1.32373
RightLeg  6.9042 5.31538 -0.352391
RightFoot  -5.40988 0.0247449 -1.18541
RightToes  -1.33073e-015 0 -3.6325e-017
Spine  -5.04447 0.516785 4.45886
Spine1  15.9778 0.97373 -1.26317
HEad  -5.98844 0.175361 -0.807927
LeftShoulder1  6.13962 -12.6449 -32.016
LeftArm  -9.64373 7.69949 -26.9371
LeftForeArm  28.1704 -48.5716 -10.5997
LeftHand  -0.246645 0.021 5.37786
RightShoulder  6.62363 13.6274 32.7187
RightArm  6.34415 -15.1872 37.5025
RightForeArm  10.7995 17.0709 7.00372
RightHand  -0.24729 -0.0210522 -5.37781
LeftUpLeg  1.45108 9.0715 7.65766
LeftLeg  10.9906 -10.4043 -2.76349
LeftFoot  -7.19356 0.14909 -2.92489
LeftToes  5.09284e-011 3.02203e-011 3.83118e-011
755
root  -1.12281 40.2925 10.3824 176.827 0.212921 -178.641
RightUpLeg  2.76115 -4.4179 0.944799
RightLeg  6.65339 5.69767 -0.508492
RightFoot  -5.23968 0.0150029 -0.947772
RightToes  -1.33073e-015 0 -3.6325e-017
Spine  -5.05388 0.569455 4.00027
Spine1  16.1005 1.03282 -1.3112
HEad  -6.02725 0.482182 -0.939058
LeftShoulder1  6.0755 -12.5606 -31.8159
LeftArm  -10.05 7.59219 -26.7496
LeftForeArm  28.3918 -48.6731 -10.625
LeftHand  -0.246645 0.021 5.37786
RightShoulder  6.62587 13.622 32.7442
RightArm  7.1261 -14.9441 38.0214
RightForeArm  10.8077 17.5989 6.73895
RightHand  -0.24729 -0.0210522 -5.37781
LeftUpLeg  1.88745 9.0739 7.30947
LeftLeg  10.2481 -10.0235 -2.81146
LeftFoot  -6.88742 0.144178 -2.64431
LeftToes  5.09284e-011 3.02203e-011 3.83118e-011
756
root  -1.28122 40.3237 10.3765 176.818 0.439896 -178.776
RightUpLeg  2.86691 -4.45643 0.574374
RightLeg  6.40741 6.0374 -0.596462
RightFoot  -5.0425 0.00974985 -0.799203
RightToes  -1.33073e-015 0 -3.6325e-017
Spine  -5.06488 0.588423 3.5416
Spine1  16.2602 1.03356 -1.28751
HEad  -6.00251 0.815495 -1.04675
LeftShoulder1  6.0292 -12.4877 -31.6988
LeftArm  -10.2373 7.51157 -26.6631
LeftForeArm  28.7452 -48.8463 -10.6702
LeftHand  -0.246645 0.021 5.37786
RightShoulder  6.6284 13.6146 32.7757
RightArm  7.53236 -14.4567 38.5029
RightForeArm  10.911 17.9243 6.56534
RightHand  -0.24729 -0.0210522 -5.37781
LeftUpLeg  2.29938 8.90241 6.96972
LeftLeg  9.53618 -9.52791 -2.8338
LeftFoot  -6.6029 0.137453 -2.36356
LeftToes  5.09284e-011 3.02203e-011 3.83118e-011
